<svg width="60" height="59" viewBox="0 0 60 59" fill="none" xmlns="http://www.w3.org/2000/svg">
<path fill-rule="evenodd" clip-rule="evenodd" d="M50.5339 39.1441L48.2556 38.7738L49.7375 37.987C54.5149 35.4414 58.9828 30.8824 58.3857 29.193C57.6779 27.2028 53.4975 28.3601 48.3883 31.9934C45.8448 33.7985 45.8669 33.7751 48.4989 30.9055C55.3111 23.4306 58.4299 15.9557 55.8643 13.2712C54.3381 11.6745 52.7012 12.6927 50.5779 16.5343C48.8307 19.7048 48.8309 19.6818 49.4281 17.4139C50.8878 11.8598 49.4721 5.77321 46.7295 5.77321C44.3408 5.77321 43.4561 8.55027 41.178 14.9143V12.2299C41.1338 3.99128 38.7232 -1.14626 35.5162 0.219117C34.4103 0.681955 33.9237 2.64903 33.7246 7.57854C33.5698 11.0961 33.4811 11.2579 32.884 9.24453C31.0261 3.11187 27.1779 -0.82227 25.5412 1.76964C24.9661 2.67218 25.2979 7.97195 26.2047 12.7855C26.6028 14.9146 26.9346 16.6271 26.8903 16.6039C26.8682 16.5577 26.2487 15.7474 25.5188 14.7755C22.0906 10.2396 17.7777 7.62482 14.2389 7.92567C11.2309 8.18023 10.9876 8.96705 13.1109 11.8598L16.473 16.4186C18.4857 19.1493 18.4636 19.0105 16.6057 18.5939C14.6815 18.1774 11.7177 18.1774 10.7446 18.6171C8.82035 19.4733 9.59446 20.0056 15.2565 26.416C15.7874 27.0176 15.721 27.0176 13.6198 26.0457C1.01288 20.237 0.924411 26.416 13.5312 33.5437C16.6055 35.2794 20.4318 37.7324 20.3212 37.8481C20.277 37.9176 19.5916 37.7787 18.8175 37.5936C15.3671 36.7373 9.04152 36.9456 3.42369 38.1721C-4.2732 39.8615 1.65428 42.1294 14.7476 42.546L19.3923 42.6848L16.8488 43.9808C12.9782 45.9479 6.45356 50.7617 6.09967 51.8956C5.43615 54.0478 10.8107 52.6822 19.5471 48.4704C21.4713 47.5447 23.0417 46.8273 23.0417 46.8736C23.0417 46.8967 22.5332 47.6604 21.9139 48.5166C18.353 53.4228 18.4634 57.2412 22.157 56.223C23.3734 55.8758 25.3861 53.4924 30.6943 47.6143C31.0261 57.3803 30.9378 59 33.5035 59C35.0738 59 35.6265 57.6115 36.0246 52.5434L36.1797 50.692L37.0863 51.6642C45.2476 60.4582 48.0344 59.0697 42.6599 48.8871C42.107 47.8226 41.6867 46.9661 41.7309 46.9661C41.7752 46.9661 43.014 47.591 44.4516 48.3315C54.4708 53.5153 57.6334 53.0293 53.1215 46.8504C52.1262 45.485 52.0598 45.2999 52.5022 45.4387C57.921 47.0818 60 47.0124 60 45.1147C59.9558 42.5923 55.9527 40.0466 50.5339 39.1441ZM15.6544 10.8184C14.7919 9.75388 13.9072 8.75855 16.0747 9.56852C20.5866 11.2116 24.8332 17.7145 27.0449 25.0969C28.1066 28.6145 28.0404 28.7765 26.6692 26.4854C24.8334 23.4769 25.5412 24.9117 22.7765 20.6999C20.6974 17.5525 17.269 12.7855 15.6544 10.8184ZM14.3495 20.5147C14.0841 20.0056 15.146 20.1444 16.9153 20.8618C19.9676 22.1115 22.2678 25.0043 25.32 31.4609C26.2932 33.5206 26.4478 33.9834 26.0275 33.5437C24.037 31.4841 14.5264 20.8618 14.3495 20.5147ZM17.2027 32.8263C13.3985 30.6972 12.2926 29.9104 10.4568 28.0822C8.73167 26.3697 9.01919 25.9531 12.8897 27.9202C16.2958 29.6558 19.2819 31.5537 21.9139 34.0762C24.1699 36.2284 23.86 36.9687 21.7146 35.5339C20.852 34.9554 18.8172 33.7288 17.2027 32.8263ZM5.10439 39.8384C4.06487 39.6532 4.37452 39.5375 9.5281 38.7738C10.8552 38.5655 13.5535 38.6813 15.4998 38.9821C17.6231 39.3292 19.9452 39.9772 21.2944 40.6252C22.7763 41.3426 10.1916 40.7178 5.10439 39.8384ZM19.3259 46.3415C15.1678 48.3549 12.4034 49.6043 12.4034 49.4192C12.4034 49.0489 21.604 42.6154 25.4967 42.5691C26.0275 42.6848 26.072 43.4485 25.5633 43.6568C23.9708 44.2585 21.8916 45.0687 19.3259 46.3415ZM23.0638 50.2757C24.8332 47.0358 27.9962 44.1891 29.4117 44.1891C29.6108 44.1891 29.7656 44.305 29.8541 44.4901C29.9426 44.6753 29.9202 44.8833 29.7875 45.0222C27.3988 48.1001 25.8948 49.4192 23.86 51.7102C22.1127 53.7005 22.2233 51.8262 23.0638 50.2757ZM27.2221 4.26899C27.2221 3.36644 27.576 3.78301 28.7482 6.23607C31.6898 12.3456 31.7783 19.3576 32.0658 30.1881C30.2522 21.6718 27.1779 8.27256 27.2221 4.26899ZM46.5083 35.5571C52.1262 30.8592 55.9527 28.4062 55.9527 29.5864C55.9527 30.7898 50.9099 35.2562 47.4596 37.0613C44.6949 38.5193 41.0674 39.8152 42.5272 38.797C42.8368 38.5887 44.6284 37.1307 46.5083 35.5571ZM50.6666 20.4224C53.3429 16.2568 54.4928 15.9094 53.6965 18.8254C51.9714 25.0274 43.6331 32.8494 39.298 36.8993C45.314 28.2673 47.6808 25.0277 50.6666 20.4224ZM39.7404 29.9567C41.6646 24.1712 43.4121 14.9375 45.6902 9.0594C46.1768 7.78658 46.3535 8.04114 46.7295 10.5173C47.4594 15.4697 44.9601 23.5466 40.5587 30.4892C38.5239 33.7059 38.5018 33.6826 39.7404 29.9567ZM36.2016 4.08385C36.4006 2.34819 36.5997 2.60275 37.3075 5.44922C38.5239 10.3553 37.8825 19.751 35.8698 26.4854C35.4717 27.8045 35.7592 7.83286 36.2016 4.08385ZM42.6157 54.3022C42.2175 54.7187 38.2145 49.9052 37.2856 47.8687C34.8748 42.546 35.6489 40.9723 38.3914 45.6239C40.6253 49.396 42.8811 54.0245 42.6157 54.3022ZM50.8878 49.2803C49.9589 49.2803 43.9872 46.0867 40.7138 43.8419L39.3201 42.8931C39.1432 42.7774 39.0547 42.5691 39.099 42.3608C39.1211 42.1526 39.2761 41.9906 39.4752 41.9211C40.5811 41.5972 41.0898 41.5972 42.0187 42.3146C44.2083 43.9808 46.5526 43.2865 49.1403 46.2487C50.2683 47.5215 51.2859 49.2803 50.8878 49.2803ZM56.0188 44.5593C55.0457 44.2585 51.7944 43.4485 49.9365 43.032C47.5921 42.4997 45.3803 41.6666 43.5446 40.9955C44.4072 40.926 47.9683 40.0698 51.0869 40.8566C53.0553 41.3426 55.1786 42.4071 55.8421 43.1708C56.5057 43.9114 56.616 44.7445 56.0188 44.5593Z" fill="white"/>
</svg>
