<svg width="23" height="21" viewBox="0 0 23 21" fill="none" xmlns="http://www.w3.org/2000/svg">
<path d="M17.6667 12.4583V13.4583H18.3874L18.6153 12.7746L17.6667 12.4583ZM20.7917 3.08333L21.7403 3.39956L22.1791 2.08333H20.7917V3.08333ZM4.125 3.08333V2.08333H3.00774L3.13112 3.19377L4.125 3.08333ZM5.16667 12.4583L4.17278 12.5688L4.27162 13.4583H5.16667V12.4583ZM3.60417 1L4.59412 0.858579C4.52374 0.36593 4.10182 0 3.60417 0V1ZM1 0C0.447715 0 0 0.447715 0 1C0 1.55228 0.447715 2 1 2V0ZM5.6875 15.5833L4.69755 15.7248C4.76793 16.2174 5.18985 16.5833 5.6875 16.5833V15.5833ZM3.90179 3.08333L2.91184 3.22475L3.90179 3.08333ZM18.6153 12.7746L21.7403 3.39956L19.843 2.76711L16.718 12.1421L18.6153 12.7746ZM20.7917 2.08333H4.125V4.08333H20.7917V2.08333ZM3.13112 3.19377L4.17278 12.5688L6.16055 12.3479L5.11888 2.9729L3.13112 3.19377ZM5.16667 13.4583H17.6667V11.4583H5.16667V13.4583ZM17.7083 17.6667C17.7083 18.265 17.2233 18.75 16.625 18.75V20.75C18.3279 20.75 19.7083 19.3695 19.7083 17.6667H17.7083ZM16.625 18.75C16.0267 18.75 15.5417 18.265 15.5417 17.6667H13.5417C13.5417 19.3695 14.9221 20.75 16.625 20.75V18.75ZM15.5417 17.6667C15.5417 17.0684 16.0267 16.5833 16.625 16.5833V14.5833C14.9221 14.5833 13.5417 15.9638 13.5417 17.6667H15.5417ZM16.625 16.5833C17.2233 16.5833 17.7083 17.0684 17.7083 17.6667H19.7083C19.7083 15.9638 18.3279 14.5833 16.625 14.5833V16.5833ZM9.375 17.6667C9.375 18.265 8.88997 18.75 8.29167 18.75V20.75C9.99455 20.75 11.375 19.3695 11.375 17.6667H9.375ZM8.29167 18.75C7.69336 18.75 7.20833 18.265 7.20833 17.6667H5.20833C5.20833 19.3695 6.58879 20.75 8.29167 20.75V18.75ZM7.20833 17.6667C7.20833 17.0684 7.69336 16.5833 8.29167 16.5833V14.5833C6.58879 14.5833 5.20833 15.9638 5.20833 17.6667H7.20833ZM8.29167 16.5833C8.88998 16.5833 9.375 17.0684 9.375 17.6667H11.375C11.375 15.9638 9.99455 14.5833 8.29167 14.5833V16.5833ZM3.60417 0H1V2H3.60417V0ZM16.625 14.5833H8.29167V16.5833H16.625V14.5833ZM8.29167 14.5833H5.6875V16.5833H8.29167V14.5833ZM6.67745 15.4419L6.23102 12.3169L4.25112 12.5998L4.69755 15.7248L6.67745 15.4419ZM17.6667 11.4583H5.24107V13.4583H17.6667V11.4583ZM6.23102 12.3169L4.89174 2.94191L2.91184 3.22475L4.25112 12.5998L6.23102 12.3169ZM4.89174 2.94191L4.59412 0.858579L2.61422 1.14142L2.91184 3.22475L4.89174 2.94191ZM20.7917 2.08333L3.90179 2.08333L3.90179 4.08333L20.7917 4.08333L20.7917 2.08333Z" fill="black"/>
</svg>
